<?xml version="1.0" encoding="UTF-8" standalone="no"?>
<svg
   viewBox="0 0 16 16"
   version="1.1"
   id="svg1"
   xmlns="http://www.w3.org/2000/svg"
   xmlns:svg="http://www.w3.org/2000/svg">
  <defs
     id="defs3051">
    <style
       type="text/css"
       id="current-color-scheme">
      .ColorScheme-Text {
        color:#232629;
      }
      </style>
  </defs>
  <g
     transform="matrix(0.02757731,0,0,0.02757731,-3.2316833,27.738639)"
     class="ColorScheme-Text"
     style="color:#232629;fill:currentColor;fill-opacity:0.6;stroke-width:11.046;stroke-dasharray:none"
     id="g4">

    <g
   transform="rotate(-60,226.35754,-449.37199)"
   id="g932"
   style="fill:currentColor;stroke-width:11.046;stroke-dasharray:none">

      <path
   id="path3336-6"
   d="m 449.71876,-420.51322 122.19683,211.67512 -56.15706,0.5268 -32.6236,-56.8692 -32.85645,56.5653 -27.90237,-0.011 -14.29086,-24.6896 46.81047,-80.4901 -33.22946,-57.8257 z"
   style="fill:currentColor;fill-opacity:1;fill-rule:evenodd;stroke:none;stroke-width:11.046" />


    </g>


    <path
   id="path4260-0"
   d="m 309.54892,-710.38827 122.19683,211.67512 -56.15706,0.5268 -32.6236,-56.8692 -32.85645,56.5653 -27.90237,-0.011 -14.29086,-24.6896 46.81047,-80.4901 -33.22946,-57.8256 z"
   style="fill:currentColor;fill-opacity:1;fill-rule:evenodd;stroke:none;stroke-width:11.046" />


    <use
   x="0"
   y="0"
   href="#path3336-6"
   id="use3439-6"
   transform="rotate(60,728.23563,-692.24036)"
   width="100%"
   height="100%" />


    <use
   x="0"
   y="0"
   href="#path3336-6"
   id="use3449-5"
   transform="rotate(180,477.5036,-570.81898)"
   width="100%"
   height="100%" />


    <use
   x="0"
   y="0"
   href="#path4260-0"
   id="use4354-5"
   transform="rotate(120,407.33916,-716.08356)"
   width="100%"
   height="100%" />


    <use
   x="0"
   y="0"
   href="#path4260-0"
   id="use4362-2"
   transform="rotate(-120,407.28823,-715.86995)"
   width="100%"
   height="100%" />


  </g>
</svg>
